<svg xmlns="http://www.w3.org/2000/svg" xmlns:xlink="http://www.w3.org/1999/xlink" width="55" height="60" viewBox="0 0 55 60">
    <defs>
        <path id="b" d="M0 0h47v39.756L23.5 52 0 39.756z"/>
        <filter id="a" width="129.8%" height="126.9%" x="-14.9%" y="-9.6%" filterUnits="objectBoundingBox">
            <feOffset dy="2" in="SourceAlpha" result="shadowOffsetOuter1"/>
            <feGaussianBlur in="shadowOffsetOuter1" result="shadowBlurOuter1" stdDeviation="2"/>
            <feColorMatrix in="shadowBlurOuter1" values="0 0 0 0 0 0 0 0 0 0 0 0 0 0 0 0 0 0 0.5 0"/>
        </filter>
    </defs>
    <g fill="none" fill-rule="evenodd">
        <g transform="translate(4 2)">
            <use fill="#000" filter="url(#a)" xlink:href="#b"/>
            <use fill="#FFF" xlink:href="#b"/>
        </g>
        <path fill="#005E9D" d="M38.28 43.05h.16c.183 0 .34-.068.34-.243 0-.122-.09-.245-.34-.245-.071 0-.12.005-.16.01v.478zm0 .78h-.224v-1.41c.118-.016.228-.032.395-.032.212 0 .352.043.435.105.083.062.127.156.127.292 0 .185-.122.297-.272.343v.01c.122.024.206.136.233.344.033.218.067.302.09.348h-.233c-.035-.046-.067-.173-.095-.359-.033-.18-.122-.246-.3-.246h-.156v.605zm.233-1.804c-.55 0-1 .478-1 1.068 0 .6.45 1.073 1.006 1.073.557.006 1-.472 1-1.068 0-.595-.443-1.073-1-1.073h-.006zm.006-.196c.683 0 1.23.561 1.23 1.264 0 .714-.547 1.27-1.236 1.27a1.248 1.248 0 0 1-1.241-1.27 1.25 1.25 0 0 1 1.241-1.264h.006z"/>
        <path fill="#FEFEFE" d="M42.26 33.388c1.14-1.168 2.3-3.008 2.3-5.546v-.025c0-1.245-.323-2.325-.843-3.225-.011-.017-.085-.171-.208-.346l-.025-.033.022-.038c.041-.072.074-.134.093-.181-.057 0-.135 0-.236-.004h-.033l-.02-.025a4.22 4.22 0 0 0-.42-.49c-.199-.194-.5-.5-.768-.709-1.389-1.097-3.099-1.62-4.54-1.623a9.78 9.78 0 0 0-4.194.952l-.078.038-.015-.086c-.382-2.126-1.305-4.043-2.373-5.997-1.176-2.15-2.532-4.36-3.627-6.968-1.093 2.609-2.454 4.817-3.628 6.968-1.067 1.954-1.99 3.871-2.372 5.997l-.016.086-.079-.038a9.759 9.759 0 0 0-4.191-.952c-1.444.004-3.15.526-4.54 1.623a6.376 6.376 0 0 0-.764.704l-.424.524h-.035l-.247.001c.02.048.054.111.093.181l.024.038-.241.375c-.401.656-.85 1.985-.848 3.233v.02c0 2.538 1.162 4.378 2.304 5.546 1.144 1.177 2.281 1.76 2.314 1.777l.873.424a3.471 3.471 0 0 1-.135-.96c0-.393.066-.855.276-1.336a4.46 4.46 0 0 1 1.686-1.999c.351-.219.645-.305.645-.305.005 0 .354-.128.916-.227l.01-.003.012.003c.763.122 1.683.26 1.684.26l-.008.134h-1.398c.068.053.159.12.263.19.236.17.542.356.802.436.535.158 1.958.411 1.958.411l-.01.132h-.92l1.94 1.17v.273l-2.405 2.37a4.81 4.81 0 0 0 .974 1.138 8 8 0 0 0 .319.261l.061.048-.311.299a3.521 3.521 0 0 1-.588.38c-.37.196-.86.375-1.366.375h-.008c-.346 0-.698-.08-1.063-.293-.354-.208-1.486-1.217-1.52-2.72a5.895 5.895 0 0 0-.696 2.805c0 .121.005.221.005.302 0 1.599.618 3.049 1.577 4.101.957 1.053 2.26 1.725 3.65 1.725h.004c.63 0 1.272-.142 1.887-.448l.06-.027.03.06c.478 1.024 1.614 3.142 3.445 4.711 1.837-1.573 2.969-3.687 3.447-4.71l.027-.061.061.027a4.213 4.213 0 0 0 1.888.448h.007c1.386-.002 2.692-.674 3.648-1.725a6.112 6.112 0 0 0 1.577-4.101c0-.08.003-.181.003-.302 0-.566-.056-1.58-.695-2.805-.033 1.503-1.17 2.512-1.518 2.72-.366.214-.72.293-1.064.293h-.008c-.505 0-.997-.179-1.368-.376-.29-.15-.5-.311-.587-.38l-.006-.003-.255-.323.053-.04c.093-.072.19-.153.296-.24.318-.27.566-.567.736-.795.118-.158.197-.282.234-.343l-2.404-2.37v-.274l1.942-1.17h-.922l-.01-.132s1.424-.253 1.96-.411c.257-.08.562-.266.8-.435.102-.07.193-.138.265-.19h-1.4l-.01-.134c.001 0 .888-.134 1.646-.254l.01-.004.014.004c.362.07.791.197.933.22.003 0 .297.086.652.305a4.508 4.508 0 0 1 1.683 2c.205.455.27.912.27 1.304 0 .44-.08.8-.131.991l.876-.424c.033-.017 1.171-.6 2.316-1.777"/>
        <path fill="#E21836" d="M13.684 27.957l.453 1.413h1.472l-1.189.873.455 1.413-1.191-.871-1.19.871.454-1.413-1.19-.873h1.47zM40.843 27.957l.455 1.413h1.47l-1.19.873.454 1.413-1.189-.871-1.19.871.454-1.413-1.19-.873h1.472z"/>
        <path fill="#E21836" d="M16.878 30.357c-1.189.75-1.838 1.722-2.175 2.54a5.43 5.43 0 0 0-.267.834l-.013.064-.053-.036a8.304 8.304 0 0 1-1.397-1.196c-.98-1.046-1.91-2.582-1.914-4.724.005-.854.173-1.6.465-2.248l-.704-.95c-.505.893-.816 1.957-.816 3.184v.022c0 2.547 1.165 4.39 2.31 5.564 1.145 1.18 2.285 1.76 2.32 1.778l.918.446a3.364 3.364 0 0 1 .125-2.326 4.462 4.462 0 0 1 1.678-1.99c.233-.144.443-.233.557-.272-.261-.17-.873-.588-1.034-.69M42.275 33.41c1.138-1.173 2.305-3.016 2.305-5.563v-.022c0-1.227-.308-2.291-.815-3.184l-.7.95c.287.648.458 1.394.46 2.248-.002 2.142-.931 3.677-1.913 4.724a8.492 8.492 0 0 1-1.393 1.196l-.054.036-.017-.064a5.507 5.507 0 0 0-.263-.833c-.338-.82-.989-1.791-2.18-2.54-.157.101-.77.519-1.03.689.115.04.324.128.557.273.934.614 1.392 1.362 1.675 1.988.206.452.268.906.268 1.298 0 .475-.093.858-.142 1.03l.919-.447c.034-.017 1.178-.599 2.323-1.778M33.498 23.217c.205-.111.505-.265.89-.416a8.813 8.813 0 0 1 3.19-.608h.014c1.101 0 2.48.397 3.61 1.194h1.628a6.554 6.554 0 0 0-.695-.633c-1.397-1.1-3.107-1.623-4.555-1.626a9.764 9.764 0 0 0-4.203.954l-.05.025-.011-.059c-.384-2.13-1.307-4.047-2.375-6.005-1.184-2.161-2.551-4.383-3.65-7.014-1.094 2.63-2.464 4.853-3.645 7.014-1.068 1.958-1.993 3.875-2.376 6.005l-.01.06-.05-.026a9.76 9.76 0 0 0-4.201-.954c-1.452.003-3.161.527-4.556 1.626a6.713 6.713 0 0 0-.696.633h1.627c1.13-.797 2.508-1.194 3.608-1.194h.017c1.316 0 2.417.308 3.188.608.387.15.687.305.889.416.1.054.177.102.225.13l.053.035a.133.133 0 0 1 .011.007l.005.001v.002l.726.498.093-.884c.24-2.239 1.178-4.266 2.37-6.446.837-1.53 1.79-3.125 2.685-4.912l.038-.079.04.079c.893 1.787 1.85 3.382 2.684 4.912 1.19 2.18 2.13 4.207 2.369 6.446l.096.884.722-.495.004-.003.007-.003s.001-.004.006-.007c.012-.006.03-.019.053-.035.05-.028.126-.076.225-.13M16.613 38.438c0 .119.003.222.003.3 0 1.608.622 3.06 1.584 4.117.96 1.054 2.272 1.73 3.667 1.732h.004c.633 0 1.28-.144 1.898-.45l.04-.018.018.041c.48 1.029 1.62 3.153 3.465 4.73 1.851-1.58 2.985-3.701 3.468-4.73l.017-.041.041.019c.618.305 1.265.45 1.897.45h.005c1.396-.002 2.705-.679 3.666-1.733a6.143 6.143 0 0 0 1.585-4.117l.002-.3c0-.581-.058-1.63-.738-2.892v.024c-.004 1.528-1.159 2.553-1.51 2.763-.361.211-.71.29-1.052.29h-.006c-.502 0-.99-.18-1.357-.371a4.445 4.445 0 0 1-.562-.359l-.895.645c.14.114.535.424.922.633.47.253 1.127.52 1.898.52h.005c.503 0 1.052-.126 1.58-.436.197-.119.392-.26.58-.43l.076-.067-.003.104a5.062 5.062 0 0 1-1.303 3.272c-.792.869-1.838 1.386-2.884 1.386v.002h-.004c-.63-.003-1.268-.184-1.894-.61l-.555-.437-.24.717v.001c-.012.02-.023.054-.042.097-.036.084-.09.211-.166.37-.147.317-.368.762-.664 1.269-.447.762-1.059 1.659-1.826 2.464l-.008.008-.033.033-.03-.033-.01-.008a13.334 13.334 0 0 1-1.824-2.464c-.297-.507-.519-.952-.667-1.269-.074-.159-.127-.286-.163-.37l-.041-.097v-.001h-.002l-.239-.717-.56.439c-.623.424-1.26.605-1.889.608-.004 0-.008-.002-.008 0-1.045-.002-2.091-.52-2.88-1.388a5.096 5.096 0 0 1-1.306-3.272l-.002-.104.076.067c.19.17.382.311.58.43.528.31 1.077.436 1.58.436h.007c.77 0 1.428-.267 1.9-.52a7.3 7.3 0 0 0 .922-.633l-.9-.645c-.098.073-.296.22-.558.356-.369.194-.86.374-1.358.374h-.006c-.343 0-.69-.079-1.054-.29-.35-.21-1.507-1.235-1.508-2.763v-.024c-.68 1.263-.738 2.31-.74 2.892"/>
        <path fill="#E21836" d="M26.564 22.9h1.477l-.75-10.56zM23.814 32.3c.082.698.236 1.461.502 2.2v-2.2h-.502zM24.867 32.3v3.394c.157.265.332.52.53.759v-4.154h-.53zM25.95 32.3v4.73c.165.147.342.285.529.414v-5.145h-.529zM27.034 32.3v5.472c.08.043.168.083.255.123.093-.042.182-.088.272-.134V32.3h-.527zM28.116 32.3v5.131c.187-.13.363-.268.527-.416V32.3h-.527zM29.198 32.3v4.132c.197-.24.373-.498.527-.764V32.3h-.527zM30.777 32.3h-.5v2.162a9.6 9.6 0 0 0 .5-2.163"/>
        <path fill="#005E9D" d="M24.42 39.508c.146.043.484.087.484.087l.854-2.051a6.104 6.104 0 0 1-1.481-1.842c-.184.42-1.268 2.906-1.279 2.974-.015.075.027.19.13.25l.325.194s-.28.536-.546.653c-.263.12-.749.31-1.188.281-.44-.03-.721-.038-.792.326-.118.61.47.917.47.917s-.236-.665.19-.665h2.687c.162 0 .338.206.176.58.352-.151.486-.445.412-.817-.074-.37-.484-.312-.675-.325a3.304 3.304 0 0 1-.528-.12l.365-.593s.25.105.396.15"/>
        <path fill="#005596" d="M29.244 26.774s.133.698.412.698c.28 0 1.579-1.194 2.055-1.676.477-.48 1.982-1.868 3.774-1.868 1.79 0 8.193.016 8.193.016s-.22.681-.765.785c-.544.104-3.833.448-3.833.448h3.775s-.382.693-.942.798c-.557.102-3.007.356-3.007.356h2.905s-.279.725-.983.857c-.705.137-3.01.329-3.01.329h2.775s-.398.681-1.013.814c-.616.134-3.053.385-3.053.385h2.597s-.365.638-1.043.756c-.674.118-2.73.4-2.73.4h2.216s-.54.727-1.305.862c-.763.13-2.26.354-2.26.354h1.586s-.691.592-1.232.756c-.545.163-1.97.416-1.97.416h1.161l-2.115 1.273v.208l2.422 2.386s-.365.653-1.013 1.2c-.643.549-1.057.755-1.057.755l-1.244-2.867c.06-.14.12-.277.171-.42.556-1.46.672-2.982.672-4.033 0-.803-.07-1.332-.07-1.34l-.023-.184-3.938-.915-.057-.015-.061.015-3.935.915-.025.184c-.002.008-.073.543-.073 1.36 0 1.052.116 2.572.67 4.028.055.146.118.292.183.436l-1.234 2.836s-.41-.206-1.058-.756a4.94 4.94 0 0 1-1.011-1.199l2.422-2.386v-.208L21.06 32.26h1.158s-1.423-.253-1.966-.416c-.546-.164-1.233-.756-1.233-.756h1.585s-1.498-.224-2.261-.354c-.763-.135-1.307-.862-1.307-.862h2.217s-2.055-.282-2.732-.4c-.674-.118-1.04-.756-1.04-.756h2.597s-2.437-.251-3.052-.385c-.619-.133-1.013-.814-1.013-.814h2.773s-2.303-.192-3.008-.329c-.706-.132-.986-.857-.986-.857H15.7s-2.45-.254-3.009-.356c-.557-.105-.94-.798-.94-.798h3.773s-3.287-.344-3.832-.448c-.542-.104-.761-.785-.761-.785s6.4-.016 8.191-.016c1.79 0 3.295 1.388 3.773 1.868.477.482 1.778 1.676 2.056 1.676.277 0 .662-.512.662-.512.22-.437.466-1.16.466-1.16s-.332-.122-.543-.257c-.21-.132-.32-.357-.32-.357h.82c.206 0 .839.157.782.48-.055.325-.53 1.841-.53 1.841s.499.102.995.102c.497 0 1.381-.102 1.381-.102l-.453-2.945c-.045-.302-.497-.402-.884-.402-.388 0-.696.09-.773.11-.077.024-.1.103.055.19.154.093.33.037.33.037s-.01.189-.152.3c-.145.11-.488.133-.72.133-.234 0-.652-.023-.797.012-.141.033-.22.11-.251.177-.037.067.097.345.097.345s-.233.102-.387-.287c-.154-.394-.047-.744.123-.86.385-.27 1.216-.101 1.216-.101s.188-.49.706-.702c.519-.213 1.04-.09 1.515-.033.476.054.93.033.93.033l-.4.68s.325 2.048.426 2.58"/>
        <path fill="#005E9D" d="M28.481 37.801a5.607 5.607 0 0 1-1.09.607l-.102.046-.104-.046a5.528 5.528 0 0 1-1.066-.591l-.568 1.481s.558.216 1.725.221c0 .002 0 .002.003.002h.049v-.002c1.169-.005 1.724-.22 1.724-.22L28.48 37.8zM32.885 40.054c-.44.029-.923-.162-1.19-.28-.263-.118-.54-.653-.54-.653s.218-.134.322-.194c.1-.06.145-.176.132-.251-.015-.07-1.15-2.677-1.293-3.004a6.157 6.157 0 0 1-1.475 1.854l.859 2.07s.338-.045.484-.088a6.15 6.15 0 0 0 .397-.151l.368.592s-.338.105-.529.121c-.192.013-.602-.046-.676.325-.072.372.058.666.41.817-.162-.373.016-.58.177-.58h2.686c.428 0 .192.665.192.665s.587-.308.47-.917c-.069-.364-.352-.356-.794-.326"/>
        <path fill="#005596" d="M30.258 30.25l.107.33-.277-.204-.273.204.105-.33-.275-.2h.341l.102-.326.107.325h.34l-.277.2zm.107 1.286l-.277-.203-.273.203.105-.327-.275-.204h.341l.102-.325.107.325h.34l-.277.204.107.327zm-.937-1.191l-.276-.202-.271.202.102-.326-.274-.203h.34l.103-.327.106.327h.34l-.274.203.104.326zm-.176 1.19l-.274-.202-.275.203.103-.327-.273-.204h.338l.107-.325.105.325h.34l-.275.204.104.327zm-1.034-1.627l-.275.202.107-.324-.277-.204h.34l.105-.325.104.325h.341l-.273.204.104.324-.276-.202zm-.077 1.628l-.277-.203-.273.203.105-.327-.275-.204h.34l.103-.325.107.325h.34l-.275.204.105.327zm-1.124-1.658l.107-.327-.275-.202h.34l.103-.325.107.325h.34l-.276.202.104.327-.275-.205-.275.205zm-.032 1.658l-.275-.203-.275.203.105-.327-.277-.204h.34l.107-.325.104.325h.341l-.275.204.105.327zm-1.074-1.954h.343l.102-.325.107.325h.338l-.275.204.107.324-.277-.202-.274.202.104-.324-.275-.204zm-.04 1.954l-.271-.203-.279.203.107-.327-.277-.204h.342l.107-.325.103.325h.339l-.274.204.104.327zm-.894-1.72h.34l.103-.327.106.327h.34l-.274.203.104.326-.276-.202-.273.202.104-.326-.274-.203zm-.321.434l.104.33-.276-.204-.275.204.107-.33-.275-.2h.338l.105-.326.106.325h.341l-.275.2zm.104 1.286l-.276-.203-.275.203.107-.327-.275-.204h.338l.105-.325.106.325h.341l-.275.204.104.327zm6.047-1.863l-3.515-.818-3.515.818-.013.167c-.017.225-.034.55-.034.941-.002.288.007.615.036.963h7.052a12.15 12.15 0 0 0-.011-2.07z"/>
    </g>
</svg>
