<?xml version="1.0" encoding="UTF-8" standalone="no"?>
<svg
   width="74"
   height="81"
   viewBox="0 0 74 81"
   version="1.1"
   id="svg389"
   sodipodi:docname="logo-lg.svg"
   xml:space="preserve"
   inkscape:version="1.2.1 (9c6d41e410, 2022-07-14)"
   inkscape:export-filename="logo-lg.png"
   inkscape:export-xdpi="96"
   inkscape:export-ydpi="96"
   xmlns:inkscape="http://www.inkscape.org/namespaces/inkscape"
   xmlns:sodipodi="http://sodipodi.sourceforge.net/DTD/sodipodi-0.dtd"
   xmlns:xlink="http://www.w3.org/1999/xlink"
   xmlns="http://www.w3.org/2000/svg"
   xmlns:svg="http://www.w3.org/2000/svg"><sodipodi:namedview
     id="namedview391"
     pagecolor="#ffffff"
     bordercolor="#000000"
     borderopacity="0.25"
     inkscape:showpageshadow="2"
     inkscape:pageopacity="0.0"
     inkscape:pagecheckerboard="0"
     inkscape:deskcolor="#d1d1d1"
     showgrid="true"
     inkscape:zoom="7.9064722"
     inkscape:cx="35.919939"
     inkscape:cy="37.75388"
     inkscape:window-width="1728"
     inkscape:window-height="1002"
     inkscape:window-x="-8"
     inkscape:window-y="-8"
     inkscape:window-maximized="1"
     inkscape:current-layer="g367"><inkscape:grid
       type="xygrid"
       id="grid452" /></sodipodi:namedview><defs
     id="defs361"><path
       id="b"
       d="M0 0h66v55.812L33 73 0 55.812z" /><filter
       id="a"
       width="1.1454545"
       height="1.1589041"
       x="-0.072727273"
       y="-0.065753425"
       filterUnits="objectBoundingBox"><feOffset
         dy="2"
         in="SourceAlpha"
         result="shadowOffsetOuter1"
         id="feOffset354" /><feGaussianBlur
         in="shadowOffsetOuter1"
         result="shadowBlurOuter1"
         stdDeviation="2"
         id="feGaussianBlur356" /><feColorMatrix
         in="shadowBlurOuter1"
         values="0 0 0 0 0 0 0 0 0 0 0 0 0 0 0 0 0 0 0.5 0"
         id="feColorMatrix358" /></filter></defs><g
     transform="translate(4,2)"
     id="g367"
     style="fill:none;fill-rule:evenodd"><use
       fill="#000000"
       filter="url(#a)"
       xlink:href="#b"
       id="use363" /><use
       fill="#ffffff"
       xlink:href="#b"
       id="use365" /></g><style
     type="text/css"
     id="style416">
	.st0{fill:#E13A3E;}
</style><g
     id="g450"
     transform="matrix(0.1316322,0,0,0.1316322,8.5687611,10.069133)"><g
       id="Titles">
</g><g
       id="Logos">
	<g
   id="g431">
		<g
   id="g423">
			<polygon
   class="st0"
   points="338.64,329.23 266.77,257.34 239.09,285.02 310.96,356.9 "
   id="polygon419" />
			<path
   class="st0"
   d="m 319.59,260.54 c -1.28,-7.02 -8.84,-14.16 -15.55,-16.82 -5.96,-2.35 -13.95,-0.75 -18.84,3.3 -5.32,2.34 -8.94,-3.2 -12.35,-6.6 1.7,-1.49 3.09,-3.08 3.19,-5.33 0.21,-1.91 -0.53,-3.72 -2.24,-4.57 -4.47,-1.7 -7.77,2.45 -10.75,5.01 1.17,-1.38 0.85,-3.84 0.31,-5.44 -1.27,-2.13 -3.51,-3.08 -5.75,-3.83 -3.19,0.86 -7.03,0.21 -9.16,-2.56 1.07,-2.77 2.66,-5.01 5.54,-6.18 7.66,-1.92 15.76,-1.49 23.1,-4.57 1.71,-1.92 3.62,-4.26 4.9,-6.6 -2.55,-1.5 2.24,-2.89 0.32,-4.8 -1.06,-4.26 4.37,-5.01 5.42,-8.63 0.32,-1.18 -1.81,-2.88 0.11,-3.94 -0.53,-2.45 0.64,-5.11 3.09,-6.49 2.23,-2.67 -0.43,-5.12 1.7,-7.88 5.75,-5.33 -4.05,-9.38 -5.75,-13.64 -5,-1.59 -9.36,-4.47 -15.11,-3.62 -1.49,-1.91 -4.69,0.64 -6.29,-1.81 0.11,-2.24 -1.59,-3.94 -3.19,-5.53 -2.88,0.53 -4.48,-2.35 -7.03,-2.77 -3.62,-3.83 -8.63,-5.63 -13,-8.51 0.21,-4.69 -5.11,-0.43 -5.96,-4.69 -3.4,-2.13 -4.36,-7.35 -9.26,-6.92 -3.3,-2.03 -7.67,1.06 -10.87,-2.13 -5.1,0 -9.15,-2.99 -13.83,-4.27 -4.37,-1.59 -10.65,0.64 -13.31,-4.37 -5.54,-2.13 -7.78,-7.77 -12.67,-11.6 -1.28,-0.42 -2.67,0.1 -3.73,-1.38 -3.51,0.1 -6.6,-0.85 -9.9,-0.11 -4.05,4.69 -10.54,0.53 -15.23,-0.54 -2.87,-1.38 -4.68,-4.26 -7.57,-5.64 -2.02,-1.81 -4.89,-1.49 -7.56,-2.02 -0.1,-0.96 -1.06,-0.64 -1.81,-0.75 -2.45,-1.81 -6.49,-0.75 -9.47,-0.53 -2.34,-1.49 -4.58,-3.31 -6.81,-5.12 -1.38,-2.02 -4.47,-0.85 -5.32,-3.41 -2.56,-2.34 -5.65,-4.58 -9.27,-5.22 -4.8,-1.8 -8.94,2.56 -14.05,1.07 -1.7,-1.49 -3.51,-2.44 -5.43,-3.31 -1.81,-0.1 -3.52,-1.37 -5.44,-1.8 -5,1.8 -8.41,-2.87 -12.67,0.1 -0.95,0.96 -2.55,0.65 -3.51,0.33 -0.85,0.21 -1.71,1.06 -1.71,1.91 1.71,5.32 0.53,10.54 0.96,16.08 2.77,2.97 -0.84,7.02 1.6,9.9 3.51,2.66 0.64,7.02 2.55,10.21 3.3,2.46 3.73,6.29 5.53,9.38 0.22,1.91 2.03,3.08 1.71,5.1 3.83,1.29 0.74,4.79 1.38,7.35 1.7,1.92 1.92,4.05 2.77,6.18 2.45,0.1 1.59,3.31 2.66,4.8 2.13,1.49 1.92,4.26 4.26,5.53 -0.75,4.15 2.66,7.14 0.75,11.4 2.76,2.77 2.02,6.71 2.13,10.22 0,4.68 6.28,5.23 6.39,9.37 2.98,3.19 2.55,6.61 2.13,10.65 1.27,2.12 -0.53,6.49 2.56,7.87 1.28,1.29 -1.28,2.78 0.74,3.74 0.21,1.92 0.85,3.41 2.55,4.47 2.77,4.26 5.65,7.77 9.69,11.17 5.22,3.1 3.3,9.91 4.05,14.7 -2.02,6.92 6.18,10.01 6.82,15.97 0.64,1.48 2.34,1.91 2.45,3.51 3.29,1.6 2.02,6.5 6.17,7.03 0,1.28 1.17,2.67 0,3.84 -0.32,1.59 1.6,2.87 2.77,4.26 -0.21,2.98 3.2,4.47 4.47,7.03 0.54,1.16 -0.85,3.19 1.07,4.04 0.11,5.21 7.03,7.02 7.45,12.14 -0.74,2.02 0.85,3.84 1.92,5.54 0.22,1.92 2.66,3.08 2.34,5.32 0.43,1.92 2.45,3.08 4.05,3.84 1.49,4.46 6.49,4.14 8.84,7.56 1.91,1.07 3.83,-0.22 5.43,-1.17 3.62,0 5.54,-4.04 8.84,-5 4.47,-3.21 10.12,-3.74 14.9,-6.4 5,-4.37 6.28,-11.61 8.62,-16.5 -0.11,-2.87 -1.17,-5.42 -2.56,-8.1 0.43,-2.12 -0.74,-4.57 -0.1,-6.7 1.38,-3.94 6.6,-1.71 9.48,-1.81 0.85,0.42 1.8,1.6 2.55,1.07 2.03,0.53 0.32,2.87 0.64,4.47 0.64,2.14 1.6,4.16 3.51,5.65 1.6,0.74 4.69,0.63 5.86,0.1 -2.34,2.77 -6.82,5.1 -6.07,9.26 0.11,1.61 1.28,2.99 2.66,3.51 3.62,1.28 6.07,-1.6 8.72,-3.62 2.56,3.62 8.2,5.86 6.71,10.97 -4.26,5.11 -5.85,13.1 -3.94,19.48 2.46,6.28 8.74,13.62 15.66,15.86 10.87,2.13 22.89,-0.75 31.09,-10.01 l -42.81,-43.23 36.94,-36.95 43.45,42.8 c 5.54,-4.69 8.3,-10.87 10.22,-17.04 0.46,-4.22 0.89,-8.47 0.15,-12.63 z m -60.16,-75.92 c -0.21,-1.92 0.22,-3.83 1.06,-5.32 2.13,-1.92 4.69,-1.71 7.35,-1.6 1.49,2.35 4.47,2.77 5.01,5.65 l 2.02,5.43 c -3.83,2.97 -0.95,8.62 -5.64,10.95 -4.05,0 -5.75,6.61 -10.12,4.58 -1.38,-1.81 -4.05,-2.56 -3.09,-5.22 l -0.85,-0.43 c -0.64,-5.3 2.44,-9.46 4.26,-14.04 z M 85.97,104.44 c -0.96,1.6 -2.88,3.08 -4.69,4.26 -2.45,-0.74 -4.8,-2.02 -7.14,-3.3 -0.43,-1.92 -1.81,-3.73 -1.81,-5.44 3.63,-1.7 4.36,-6.5 8.95,-6.17 l 3.08,0.32 c -0.42,2.34 2.66,2.45 1.49,4.69 0.11,0.74 0.86,1.48 -0.31,2.02 1.07,0.43 -0.32,2.45 0.43,3.62 z m 159.29,208.07 c 2.02,1.17 4.69,2.97 5.53,5.32 0.22,1.7 0.86,3.62 -0.21,5.11 -1.38,1.8 -3.94,2.02 -5.85,1.17 -2.99,-1.06 -5.43,-4.16 -5.97,-7.24 -0.63,-3.41 3.52,-5.85 6.5,-4.36 z m -0.64,-88.81 c 1.07,2.13 1.18,4.79 -0.1,6.92 -2.34,2.34 -5.75,3.2 -5.64,6.93 l -2.02,1.58 c -0.75,-1.38 -0.53,-3.08 -2.35,-3.61 -0.85,-2.56 -1.59,-5.64 -4.15,-7.14 -1.06,-1.7 -1.6,-4.36 -0.96,-5.85 1.49,-0.64 4.05,-2.98 4.79,-0.32 3.62,-2.13 6.6,2.12 10.43,1.49 z m -8.09,-49.19 c 2.13,0.43 3.09,3.3 3.83,5.32 1.38,1.18 1.49,3.41 2.34,4.91 -0.11,0.96 -0.75,1.81 -0.53,3.08 2.34,1.28 0.22,3.84 0.96,5.65 -1.7,1.91 -2.55,5.32 -5.43,5.64 -1.07,2.56 -4.36,4.16 -6.17,6.17 -2.02,0.11 -3.62,2.56 -5.96,1.29 -1.39,-1.38 -1.92,-2.56 -2.24,-4.37 0.42,-4.69 5.43,-6.08 6.07,-10.53 1.6,-0.96 2.55,-2.56 2.66,-4.37 -2.87,-2.03 3.09,-5.43 -1.49,-6.4 -0.64,-2.97 -5.11,-2.33 -4.68,-5.96 1.7,-1.7 2.87,-5.43 6.28,-4.37 1.17,2.23 3.93,1.38 4.36,3.94 z m -16.51,69.96 c 0.75,-0.75 1.92,-1.71 1.07,-2.99 0.96,-1.17 2.24,-2.02 3.62,-1.49 -0.1,1.38 1.28,0.86 2.13,1.07 1.07,1.07 2.46,2.67 2.24,4.16 -2.35,2.77 -4.26,5.53 -7.14,7.56 -1.07,-0.21 -2.23,-0.32 -2.66,-1.6 0.11,-2.25 1.81,-4.38 0.74,-6.71 z m -3.83,-97.54 0.11,0.32 c 1.81,-3.73 6.81,-2.13 10.33,-2.67 2.13,2.14 6.07,-1.38 6.91,2.89 0.32,2.02 2.35,3.83 0.22,5.53 -1.7,0.42 -2.13,2.56 -3.73,3.09 -5.11,-0.64 -10.44,7.23 -14.38,0.74 -0.63,-3.19 -1.38,-6.92 0.54,-9.9 z m -9.69,84.44 c -0.1,-2.02 2.02,-3.31 2.77,-4.69 3.83,0.21 4.26,-5.53 7.99,-4.36 l 3.83,-1.28 c 0.74,2.03 1.81,3.3 0.96,5.64 -0.85,2.98 -4.79,4.8 -3.94,8.2 -2.45,2.88 -6.17,1.71 -9.16,1.49 0,-2.98 -5.53,-1.92 -2.45,-5 z m -35.03,-104.9 c 7.24,0.22 12.78,4.7 19.16,6.4 2.02,-1.17 2.98,2.56 4.58,0.32 1.81,1.17 -0.1,2.87 1.5,4.26 0.53,1.17 -0.96,2.66 -1.81,3.73 -5.32,1.92 -12.88,5.43 -17.89,0.86 -3.72,-0.32 -5.11,-5.54 -8.84,-6.5 -0.53,-1.6 -1.6,-3.3 -1.38,-5.01 z m -8.2,77.22 c -0.96,3.3 3.41,4.89 2.56,8.09 3.08,1.81 2.76,5.11 5.22,7.13 0.32,2.24 -1.18,4.16 -2.99,5.11 -1.81,0.32 -3.62,1.49 -5.53,0.86 -1.71,-2.13 -4.9,-0.63 -6.5,-3.94 -0.85,-2.77 -4.36,-4.59 -4.9,-7.67 1.49,-3.62 -1.92,-7.67 1.59,-10.55 l 4.69,-3.83 c 1.93,1.49 6.82,0.63 5.86,4.8 z m -40.46,-91.37 c 1.81,-0.1 -0.1,-2.03 1.71,-2.12 1.28,0.63 3.3,0.32 4.47,-0.22 1.49,-0.86 3.09,0.95 4.58,-0.53 0.96,1.17 2.88,1.17 3.94,2.23 l 0.11,0.54 c 2.13,-1.07 2.34,1.07 3.08,2.67 1.6,1.16 -0.85,1.9 -0.53,3.08 l -3.72,1.81 -0.11,-0.75 c -1.17,-0.1 -2.13,1.7 -3.29,0.54 -0.22,-2.34 -2.35,0 -3.2,-1.29 -0.95,1.17 -2.13,0.22 -3.3,0.32 -1.29,-2.13 -4.38,-3.51 -3.74,-6.28 z m -12.03,15.23 c 2.13,-2.34 5.22,-0.1 7.24,-2.98 2.56,-0.22 3.2,2.76 5.97,2.13 1.06,0.63 2.34,1.49 2.56,2.56 -1.07,2.13 1.38,3.31 0.74,5.22 -2.13,3.62 -6.82,5.11 -7.99,9.04 -0.85,0.22 -1.81,0.97 -2.55,0.22 -2.88,-0.95 -2.99,-4.05 -4.69,-5.97 1.7,-2.97 -2.87,-4.79 -1.06,-7.88 l -0.65,0.21 c -0.53,-0.73 0.11,-1.8 0.43,-2.55 z m -1.49,43.66 c -2.34,-0.64 -4.58,-1.59 -6.92,-1.59 -1.71,-2.35 -5.01,-1.6 -6.28,-4.37 -1.6,-0.1 -1.71,-1.7 -1.92,-2.77 0.53,-2.02 1.39,-4.15 -0.64,-5.74 -2.87,-5.21 3.83,-7.46 7.35,-5.21 2.34,1.7 3.84,4.46 4.15,6.91 2.66,3.73 7.78,1.81 10.33,5.43 -0.43,1.49 -1.17,3.09 -1.6,4.58 z m 17.04,58.56 c -1.39,0.74 -2.67,2.03 -4.48,1.28 -2.44,-1.61 -4.04,-3.83 -5.63,-6.08 l -1.17,-0.73 c 1.59,-1.61 0.53,-3.53 0.64,-5.33 2.13,-0.85 2.77,-4.47 5.32,-3.83 1.5,-1.29 2.34,0.43 3.83,0.21 1.28,2.34 3.52,5.22 1.6,7.98 5.1,1.49 -1.39,3.74 -0.11,6.5 z m 14.48,-31.73 c -2.99,2.13 -6.07,0.75 -8.84,-0.95 -2.45,-1.17 -6.07,0.09 -7.03,-3.2 -0.74,-2.87 0.11,-5.21 0.86,-7.88 h 1.49 c -0.54,-1.59 -0.54,-3.73 0,-5.53 2.02,-2.23 4.26,0.64 6.39,-1.07 1.49,1.92 4.68,2.56 4.36,5.65 2.45,0.95 3.2,4.26 5.75,5.54 -1.17,2.86 1.59,6.48 -2.98,7.44 z m 1.59,-44.62 c -1.28,0 -2.56,0 -3.09,-1.17 1.59,-2.23 -1.71,-2.77 -0.96,-5 -4.15,-1.38 1.92,-3.62 -0.74,-5.63 0.11,-2.67 3.08,-3.94 5.11,-4.69 1.7,1.49 3.94,0.32 5.64,-0.54 1.91,2.56 4.26,3.41 7.03,4.27 2.02,0.31 1.28,3.41 3.62,2.77 1.81,0.95 0.43,3.41 0.11,4.79 -0.75,2.03 -0.32,5.01 -3.09,6.07 -2.13,0.43 -4.05,-1.06 -5.86,0.32 -2.55,-1.3 -5.53,0.19 -7.77,-1.19 z m 24.07,135.02 c -2.55,-1.06 -5.12,1.28 -7.88,0.43 -2.66,-3.08 -5.97,-5.12 -5.11,-9.59 -2.02,-1.16 -0.75,-4.36 -3.73,-4.58 0.86,-1.49 -0.74,-3.51 -1.49,-5.11 -1.92,-1.07 0.1,-2.87 -1.28,-4.26 0.42,-2.34 0.42,-4.68 2.56,-6.17 1.49,-1.27 3.51,-1.38 5.43,-0.54 2.87,3.1 3.4,6.82 3.51,10.76 3.09,0.32 0.53,5.21 4.16,3.72 0,1.92 1.6,1.82 2.88,2.46 2.24,1.39 4.79,2.88 4.47,5.75 -1.93,2.12 -0.75,5.64 -3.52,7.13 z m 14.05,-36.2 c -0.96,2.44 0.85,5.74 -2.13,7.23 -2.66,-1.17 -7.56,0.32 -7.35,-4.15 0.85,-2.13 -2.66,-3.93 -0.54,-6.06 -1.06,-1.92 2.13,-1.92 1.71,-3.62 2.02,-0.33 4.69,-2.78 6.07,0.1 0.96,-0.31 1.59,0.97 2.02,1.6 -0.21,0.64 -0.65,1.7 -0.11,2.45 1.19,0.74 1.19,1.6 0.33,2.45 z m 10.97,-68.25 c 0,-1.29 -1.38,-1.81 -2.24,-2.67 0.43,-2.34 -0.1,-5.21 -2.66,-6.7 -2.44,-0.32 -1.59,-3.94 -4.36,-3.31 -0.85,-2.56 1.27,-4.9 -0.85,-6.81 -0.11,-2.45 2.66,-2.23 2.98,-4.47 0.43,-0.43 0.75,-0.96 1.49,-0.86 0.32,-0.74 2.03,-1.17 3.09,-2.02 2.13,0.21 1.17,3.31 3.51,3.09 1.59,0.74 0.85,1.92 0.32,2.87 0.74,1.81 2.77,3.41 2.13,5.54 3.52,1.17 0.32,4.58 3.3,5.86 0.64,0.21 0,0.85 0,1.5 1.17,2.44 1.49,4.47 -0.96,6.5 0.53,1.38 0.22,2.98 -1.59,3.51 -1.6,-0.97 -4.59,1.37 -4.16,-2.03 z m 2.98,35.77 c -0.43,-1.29 0.43,-1.7 0.53,-3.09 1.49,-0.85 2.66,-2.23 4.36,-2.02 2.03,1.17 3.41,1.7 4.26,4.05 -0.96,1.82 -3.3,4.79 -5.43,4.79 -1.7,-0.64 -2.76,-2.14 -3.72,-3.73 z m 4.16,23.32 c -0.85,-0.85 -1.39,-2.24 -0.75,-3.29 1.7,-2.56 4.69,-0.66 6.81,-1.07 0.85,1.48 3.72,3.3 2.13,5.32 1.49,3.19 -2.23,4.79 -2.13,7.67 -1.91,1.27 -3.52,-0.55 -5.33,-1.07 -1.16,-2.44 -2.54,-5.11 -0.73,-7.56 z m 8.72,23.64 c -2.02,-2.88 -2.44,-6.93 -4.47,-10.01 0.53,-2.02 2.34,-3.83 4.47,-4.47 l 7.78,1.17 c 1.06,0.86 2.77,1.06 3.09,2.67 -1.7,1.48 -0.11,5 -2.66,6.06 -2.77,1.27 -4.69,6.18 -8.21,4.58 z m 48.13,-26.84 -34.61,34.39 c -2.02,0.97 -3.94,-0.95 -4.69,-2.56 -0.1,-1.16 0.65,-2.12 1.07,-3.19 l 33.22,-33.22 c 1.06,-0.44 2.66,-0.96 3.83,-0.22 1.29,1.29 2.35,3.21 1.18,4.8 z m 50.48,27.7 c -1.18,2.02 -3.51,2.65 -5.75,1.9 -2.55,-1.06 -4.9,-3.4 -5.96,-5.96 -0.75,-1.38 -0.54,-3.3 0.32,-4.57 1.06,-1.28 2.56,-1.49 4.05,-1.71 2.66,0.75 5.42,2.46 6.81,4.9 0.74,1.59 1.27,3.83 0.53,5.44 z"
   id="path421" />
		</g>
		<g
   id="g429">
			<path
   class="st0"
   d="m 360.57,326.78 v 2.37 h -4 v 11.01 h -2.81 v -11.01 h -4.02 v -2.37 z"
   id="path425" />
			<path
   class="st0"
   d="m 371.08,326.78 h 4.02 v 13.38 h -2.6 v -9.05 c 0,-0.26 0,-0.62 0,-1.09 0.01,-0.47 0.01,-0.83 0.01,-1.09 l -2.54,11.23 h -2.71 l -2.52,-11.23 c 0,0.25 0.01,0.62 0.01,1.09 0.01,0.47 0.01,0.84 0.01,1.09 v 9.05 h -2.61 v -13.38 h 4.07 l 2.44,10.52 z"
   id="path427" />
		</g>
	</g>
</g></g></svg>
